<svg xmlns="http://www.w3.org/2000/svg" width="216" height="72" viewBox="0 0 216 72" fill="none"><path d="M93.9649 31.4354C93.4733 31.9239 93.7191 32.552 93.7074 33.1103C93.684 38.4026 93.7074 43.7066 93.6957 48.9989C93.6957 51.5113 92.888 52.4651 90.863 52.4651C88.9902 52.4651 87.5973 51.046 87.5856 48.9872C87.5622 40.0659 87.5739 31.133 87.5739 22.2117C87.5739 21.0951 88.0538 20.118 88.6508 19.2689C89.8564 17.5475 92.2208 17.7103 93.4733 19.583C96.9263 24.7473 100.321 29.9582 103.797 35.1109C104.804 36.5998 106.115 37.8909 107.075 39.589C107.66 38.9377 107.473 38.3794 107.473 37.8909C107.484 32.4706 107.473 27.062 107.484 21.6417C107.484 19.7574 108.456 18.4663 109.989 18.2105C111.827 17.8964 113.454 19.1991 113.466 21.1765C113.513 30.7491 113.536 40.3218 113.243 49.8945C113.196 51.2438 112.506 52.1277 111.195 52.5116C109.779 52.9303 108.631 52.4069 107.917 51.2554C105.857 47.9753 103.235 45.0791 101.199 41.7641C99.2322 38.5538 97.0785 35.4599 94.995 32.331C94.7609 31.9588 94.597 31.4354 93.9649 31.4354Z" fill="#F18642"></path><path d="M83.758 28.388C84.0038 31.6681 83.5707 35.6344 83.4771 39.6124C83.2898 47.3589 77.6011 52.6163 69.1851 52.9653C65.4629 53.1165 61.7757 52.8373 58.51 50.8716C53.6406 47.9405 52.0253 43.2996 51.9668 38.0072C51.9083 32.366 51.838 26.7247 52.1775 21.0835C52.2945 19.0945 53.1724 18.164 55.2091 18.0826C56.8947 18.0244 58.2291 19.1294 58.2759 20.9207C58.3578 23.8867 58.2759 26.8643 58.2174 29.8303C58.1471 33.7967 57.7843 37.7862 58.6622 41.7177C59.2708 44.4278 60.9915 46.1725 63.6954 46.7541C67.5932 47.5916 71.5378 47.8591 74.9206 45.2187C76.9924 43.602 77.6948 41.2524 77.7299 38.7168C77.8001 33.0174 77.8586 27.3063 77.9171 21.6069C77.9406 19.4202 78.9121 18.1989 80.6796 18.164C82.4822 18.1291 83.7112 19.49 83.7346 21.6185C83.7697 23.6424 83.758 25.6663 83.758 28.388Z" fill="#F18642"></path><path d="M195.952 19.9551C195.917 20.6647 195.87 21.3626 195.835 22.0721C194.512 25.7709 193.494 29.6092 191.82 33.1452C189.163 38.7632 187.454 44.6952 185.16 50.4295C184.633 51.7439 183.849 52.6395 182.433 52.6395C180.981 52.6395 180.01 51.8602 179.506 50.4179C177.985 46.091 176.568 41.7292 174.777 37.5186C172.741 32.7032 171.02 27.7831 169.229 22.8746C168.316 20.3971 168.749 18.9781 170.657 18.2686C172.436 17.6056 174.227 18.6175 175.035 20.8275C177.212 26.8061 179.354 32.8079 181.531 38.7981C181.719 39.3215 181.672 40.2171 182.362 40.2404C183.088 40.2637 183.041 39.3564 183.228 38.8446C185.464 32.8195 187.688 26.7828 189.818 20.7228C190.357 19.1758 191.27 18.3151 192.885 18.1755C194.325 18.0592 195.32 18.7106 195.952 19.9551Z" fill="#F18642"></path><path d="M117.516 21.2696C117.516 19.1992 118.511 18.0942 120.313 18.0826C122.42 18.071 123.626 19.1294 123.673 21.2231C123.731 24.4915 123.86 27.7599 123.661 31.0167C123.275 37.1349 123.579 43.2414 123.462 49.3479C123.415 51.4183 122.713 52.2558 120.793 52.4535C118.616 52.6745 117.352 51.6044 117.34 49.4061C117.317 45.5444 117.328 41.6828 117.328 37.8211" fill="#F18642"></path><path d="M158.964 35.297C158.964 30.7143 158.952 26.1431 158.964 21.5603C158.964 19.4434 160.029 18.1407 161.738 18.0709C163.54 18.0011 164.723 19.3387 164.734 21.537C164.758 28.9114 164.816 36.2857 164.699 43.6601C164.664 45.6723 164.535 47.6845 164.5 49.7084C164.465 51.5345 163.634 52.4069 161.937 52.4651C159.994 52.5348 158.94 51.6625 158.917 49.7433C158.858 44.9279 158.893 40.1125 158.893 35.297C158.929 35.297 158.952 35.297 158.964 35.297Z" fill="#F18642"></path><path d="M154.328 50.7204C153.907 51.8254 153.123 52.4651 151.87 52.4651C144.73 52.4651 137.602 52.4884 130.462 52.4535C128.542 52.4418 127.664 51.4648 127.652 49.4991C127.629 44.8 127.641 40.1009 127.641 35.4018C127.641 30.7027 127.617 26.0036 127.652 21.3045C127.676 18.8153 129.701 17.4196 131.749 18.385C133.025 18.9898 133.306 20.0366 133.306 21.3394C133.283 29.1324 133.353 36.9255 133.247 44.7069C133.224 46.5447 133.762 47.0332 135.588 46.9867C140.844 46.8704 146.111 46.9169 151.367 46.9634C153.743 46.9751 155.078 48.7314 154.328 50.7204Z" fill="#F18642"></path><path d="M41.0342 48.4522C42.6051 48.4522 43.8785 47.1868 43.8785 45.6258C43.8785 44.0648 42.6051 42.7993 41.0342 42.7993C39.4633 42.7993 38.1898 44.0648 38.1898 45.6258C38.1898 47.1868 39.4633 48.4522 41.0342 48.4522Z" fill="#F18642"></path><path d="M43.8551 37.8443C43.8785 37.9839 43.8902 38.1351 43.8902 38.2747C43.8902 39.8333 42.6144 41.1011 41.0459 41.1011C40.6128 41.1011 40.1914 41.0081 39.8168 40.822C39.6881 40.7638 39.571 40.694 39.454 40.6242C39.3135 40.5195 39.1614 40.3916 39.0326 40.2753C38.9858 40.2288 38.9507 40.1939 38.9038 40.1357C38.4707 39.589 38.2366 38.7981 38.2366 37.7745C38.2366 33.8547 38.2484 29.9466 38.2366 26.0268C38.2366 25.5383 38.2483 25.0381 38.143 24.5728C37.944 23.7586 37.3939 23.2236 36.516 23.1887C35.6264 23.1422 35.0177 23.6307 34.7602 24.4333C34.608 24.945 34.608 25.5034 34.5963 26.0384C34.5963 32.3543 34.5378 38.6702 34.6197 44.986C34.6549 46.8238 34.2803 48.7081 33.1098 50.1853C30.7922 53.128 25.9813 53.919 22.9731 51.5694C22.2474 50.9995 21.6036 50.3365 21.1003 49.5572C20.4682 48.5685 20.1053 47.4403 20 46.2771C20 45.7653 20 45.2419 20 44.7301C20 44.2183 20 43.6949 20 43.1832C20 42.6714 20 42.1479 20 41.6362C20 41.1244 20 40.601 20 40.0892C20 39.5774 20 39.054 20 38.5422C20 38.0304 20 37.507 20 36.9952C20 36.4834 20 35.96 20 35.4482C20 34.9365 20 34.413 20 33.9013C20 33.3895 20 32.8893 20 32.3775C20 32.1914 20.0117 31.9937 20.0585 31.8076C20.0702 31.7611 20.0702 31.7145 20.0819 31.668C20.0936 31.575 20.1171 31.4936 20.1522 31.4121C20.199 31.2493 20.2692 31.0864 20.3629 30.9236C20.5267 30.6212 20.7608 30.3537 21.0301 30.1327C21.311 29.9117 21.627 29.7488 21.9665 29.6558C22.1889 29.5976 22.4347 29.5627 22.6688 29.5627C24.05 29.5627 25.1854 30.6328 25.279 31.9821C25.2907 32.0402 25.2907 32.11 25.2907 32.1682C25.3141 32.2729 25.3141 32.3775 25.3141 32.4939C25.279 36.4602 25.3024 40.4381 25.3024 44.4045C25.3024 44.893 25.2556 45.3931 25.361 45.8584C25.6068 46.9983 26.2506 47.7543 27.5498 47.6031C28.7321 47.4635 29.2939 46.7656 29.2705 45.6025C29.2588 44.672 29.2705 43.7531 29.2705 42.8226C29.3056 36.8324 29.3173 30.8422 29.3641 24.8636C29.3875 21.7115 31.4476 19.1061 34.5261 18.257C37.5694 17.4195 40.683 18.6873 42.4856 21.2114C43.621 22.77 43.9371 24.3867 43.9019 26.2478C43.8317 30.1094 43.8785 33.971 43.8668 37.8327V37.8443H43.8551Z" fill="#F18642"></path></svg>